#!OML:ASF F:\VICON\USERDATA\INSTALL\rory3\rory3.ASF
:FULLY-SPECIFIED
:DEGREES
220
root -8.51697 17.8328 10.8605 -10.2025 65.5852 -14.3058
lowerback 9.96913 2.63085 5.63664
upperback 0.119902 4.26473 1.55847
thorax -5.1761 1.99202 -2.1303
lowerneck -19.5405 -3.11882 -10.871
upperneck 35.0773 -1.8705 5.59057
head 15.9458 -1.18857 4.04823
rclavicle -2.5022e-014 -3.04141e-014
rhumerus -26.2706 -11.228 -76.8675
rradius 27.5592
rwrist 8.04085
rhand -15.3593 7.45136
rfingers 7.12502
rthumb 10.8182 -22.25
lclavicle -2.5022e-014 -3.04141e-014
lhumerus -36.6201 8.88881 79.7922
lradius 37.7404
lwrist -3.5141
lhand -21.3354 29.0701
lfingers 7.12502
lthumb 5.05048 58.99
rfemur 13.2248 -3.72816 24.9968
rtibia 14.9471
rfoot -9.10816 -2.59073
rtoes -15.4663
lfemur -26.1616 -1.10996 -17.0343
ltibia 11.8298
lfoot -7.32928 16.993
ltoes 5.35184
221
root -8.40508 17.8264 10.9019 -10.486 65.8247 -14.6087
lowerback 9.97858 2.68147 5.62748
upperback 0.118131 4.33768 1.64198
thorax -5.18532 2.02938 -2.04844
lowerneck -19.7048 -3.17497 -10.9041
upperneck 34.9805 -1.90204 5.51906
head 15.9416 -1.21511 4.01245
rclavicle -4.32108e-014 -1.65985e-014
rhumerus -26.0145 -11.2519 -76.7322
rradius 27.9947
rwrist 7.61393
rhand -15.5482 7.43103
rfingers 7.12502
rthumb 10.636 -22.2798
lclavicle -4.32108e-014 -1.65985e-014
lhumerus -36.9756 9.78593 79.1306
lradius 36.2221
lwrist -4.35428
lhand -21.2051 28.7233
lfingers 7.12502
lthumb 5.17636 58.6401
rfemur 13.8127 -3.81201 25.0225
rtibia 14.5921
rfoot -8.75559 -2.49488
rtoes -16.8834
lfemur -26.1873 0.54433 -17.5552
ltibia 12.496
lfoot -6.93489 15.5956
ltoes 6.53064
222
root -8.289 17.8118 10.9429 -10.3377 66.0561 -14.4608
lowerback 9.94445 2.73554 5.42076
upperback 0.126272 4.3844 1.66848
thorax -5.17128 2.05857 -1.9102
lowerneck -19.8926 -3.24412 -11.0548
upperneck 34.8925 -1.98714 5.65959
head 15.9573 -1.25021 4.08167
rclavicle -3.29237e-014 -6.95746e-015
rhumerus -25.7498 -11.2158 -76.6557
rradius 28.5025
rwrist 7.03566
rhand -15.7396 7.3015
rfingers 7.12502
rthumb 10.4514 -22.4187
lclavicle -3.29237e-014 -6.95746e-015
lhumerus -37.3862 10.7577 78.3827
lradius 34.8377
lwrist -5.37151
lhand -20.6952 28.5152
lfingers 7.12502
lthumb 5.66863 58.4194
rfemur 14.2957 -3.79128 24.8481
rtibia 14.4277
rfoot -8.44281 -2.42627
rtoes -17.6215
lfemur -26.1884 2.08133 -18.3006
ltibia 13.1657
lfoot -6.24936 14.5781
ltoes 6.1576
223
root -8.17127 17.7861 10.9839 -10.2793 66.3587 -14.3387
lowerback 9.94051 2.73665 5.25571
upperback 0.18154 4.36489 1.67783
thorax -5.12481 2.05566 -1.80449
lowerneck -20.1201 -3.28809 -11.3187
upperneck 34.7461 -2.03342 5.91684
head 15.9522 -1.26726 4.22693
rclavicle 3.42655e-014 -8.15017e-015
rhumerus -25.5166 -11.4317 -76.5645
rradius 29.1024
rwrist 6.87976
rhand -15.6919 7.43334
rfingers 7.12502
rthumb 10.4973 -22.2846
lclavicle 3.42655e-014 -8.15017e-015
lhumerus -37.7383 11.6046 77.6455
lradius 33.443
lwrist -6.33858
lhand -20.3191 28.5201
lfingers 7.12502
lthumb 6.03173 58.4142
rfemur 14.7156 -3.62659 24.7489
rtibia 14.5539
rfoot -8.32236 -2.56438
rtoes -17.6519
lfemur -26.04 3.4642 -19.0471
ltibia 13.6948
lfoot -5.41769 13.5826
ltoes 5.56604
224
root -8.04705 17.7623 11.0268 -10.2726 66.6453 -14.2116
lowerback 9.93224 2.71877 5.12082
upperback 0.256848 4.31846 1.6256
thorax -5.04932 2.03881 -1.77502
lowerneck -20.3555 -3.28166 -11.38
upperneck 34.6122 -2.05483 6.10603
head 15.9462 -1.25626 4.31192
rclavicle 7.69297e-014 -3.37934e-015
rhumerus -25.307 -11.8259 -76.6025
rradius 29.6193
rwrist 6.90704
rhand -15.5542 7.55568
rfingers 7.12502
rthumb 10.6302 -22.1554
lclavicle 7.69297e-014 -3.37934e-015
lhumerus -38.0577 12.2251 76.9032
lradius 32.015
lwrist -6.83337
lhand -21.2526 29.2075
lfingers 7.12502
lthumb 5.13045 59.1254
rfemur 15.2017 -3.35602 24.6738
rtibia 14.7123
rfoot -8.1693 -2.67997
rtoes -17.5101
lfemur -25.7703 4.4463 -19.5742
ltibia 14.2715
lfoot -5.16988 12.5885
ltoes 6.52058
225
root -7.91881 17.7399 11.0653 -10.2084 66.9116 -13.9924
lowerback 9.95522 2.66937 5.00171
upperback 0.313564 4.23184 1.52531
thorax -5.00852 1.9995 -1.80146
lowerneck -20.4386 -3.24284 -11.2707
upperneck 34.4382 -2.07164 6.18747
head 15.8786 -1.23495 4.31644
rclavicle 1.11071e-014 -2.67365e-014
rhumerus -25.0729 -11.9873 -76.8093
rradius 29.9887
rwrist 6.52426
rhand -15.5075 7.66128
rfingers 7.12502
rthumb 10.6752 -22.0475
lclavicle 1.11071e-014 -2.67365e-014
lhumerus -38.4383 12.9701 75.9877
lradius 30.5846
lwrist -7.44905
lhand -21.807 30.0008
lfingers 7.12502
lthumb 4.59515 59.931
rfemur 15.7304 -3.23488 24.4897
rtibia 14.8532
rfoot -7.82989 -2.61597
rtoes -17.8217
lfemur -25.3983 4.85002 -19.8817
ltibia 14.8707
lfoot -5.39669 11.9921
ltoes 9.29976
226
root -7.7844 17.7441 11.0991 -9.89624 67.1419 -13.5254
lowerback 9.95104 2.60168 4.79993
upperback 0.366016 4.11016 1.429
thorax -4.96514 1.94479 -1.77185
lowerneck -20.4164 -3.1455 -11.0261
upperneck 34.1685 -2.01062 6.11394
head 15.7256 -1.18416 4.23716
rclavicle -3.95457e-014 -9.0447e-015
rhumerus -24.9111 -11.9691 -77.0282
rradius 30.486
rwrist 6.09279
rhand -15.7789 7.7168
rfingers 7.12502
rthumb 10.4134 -22.0053
lclavicle -3.95457e-014 -9.0447e-015
lhumerus -38.8965 14.4082 74.6574
lradius 29.0504
lwrist -9.36535
lhand -20.5354 29.5759
lfingers 7.12502
lthumb 5.82295 59.4759
rfemur 16.215 -3.17197 24.1659
rtibia 14.9713
rfoot -7.30825 -2.54914
rtoes -17.8091
lfemur -25.2547 5.83806 -20.5512
ltibia 15.3794
lfoot -4.44026 11.3495
ltoes 7.77879
227
root -7.64458 17.7476 11.1272 -9.47503 67.4065 -12.925
lowerback 9.9956 2.5566 4.65453
upperback 0.388933 4.02619 1.28476
thorax -4.97018 1.90469 -1.83185
lowerneck -20.3819 -3.0668 -10.7964
upperneck 33.9611 -1.98435 6.08314
head 15.6066 -1.14439 4.17672
rclavicle 3.58434e-014 2.17669e-014
rhumerus -24.8698 -11.9499 -77.2042
rradius 31.02
rwrist 5.60909
rhand -16.1114 7.67192
rfingers 7.12502
rthumb 10.0927 -22.066
lclavicle 3.58434e-014 2.17669e-014
lhumerus -39.3399 15.8306 73.2704
lradius 27.4978
lwrist -11.2542
lhand -19.4245 29.0993
lfingers 7.12502
lthumb 6.89534 58.967
rfemur 16.6536 -3.27108 23.6964
rtibia 15.2142
rfoot -6.66048 -2.32829
rtoes -17.5193
lfemur -25.0347 6.344 -21.1115
ltibia 15.6839
lfoot -3.15398 11.0888
ltoes 7.26094
228
root -7.50289 17.756 11.1511 -8.72025 67.7606 -11.9809
lowerback 10.0896 2.66229 4.48588
upperback 0.36806 4.13574 1.01165
thorax -5.02879 1.95633 -2.04261
lowerneck -20.2892 -3.20874 -10.6406
upperneck 33.8577 -2.30447 6.17822
head 15.5703 -1.24233 4.12496
rclavicle -5.52559e-014 -5.1684e-015
rhumerus -25.0497 -12.4983 -77.2096
rradius 31.5536
rwrist 5.20912
rhand -16.195 7.66871
rfingers 7.12502
rthumb 10.012 -22.0732
lclavicle -5.52559e-014 -5.1684e-015
lhumerus -39.5249 16.4692 72.2508
lradius 25.868
lwrist -12.536
lhand -19.2076 28.7418
lfingers 7.12502
lthumb 7.10475 58.6025
rfemur 16.9601 -3.2754 23.1172
rtibia 15.6054
rfoot -5.8203 -2.13156
rtoes -18.1479
lfemur -24.7372 6.3309 -21.6498
ltibia 15.8437
lfoot -2.17671 10.6746
ltoes 8.30582
